<svg viewBox="0 0 174.49 39.9" xmlns="http://www.w3.org/2000/svg" xmlns:xlink="http://www.w3.org/1999/xlink" id="Layer_1" overflow="hidden"><style>
.MsftOfcThm_Background1_Fill_v2 {
 fill:#FFFFFF; 
}
</style>
<defs></defs><path d="M100.64 0 107.68 1.5C112.71 2.57 117.92 5.01 117.92 13.26 117.92 21.51 112.71 21.77 107.68 20.7L100.64 19.2 100.64 0ZM107.68 16.34C110.83 17.01 113.18 17.4 113.18 12.25 113.18 7.1 110.81 6.49 107.68 5.82L105.39 5.33 105.39 15.84 107.68 16.33ZM132.56 6.79 132.56 11.12 128.36 10.23 128.36 20.74 132.56 21.63 132.56 25.99 119.45 23.2 119.45 18.84 123.65 19.73 123.65 9.22 119.45 8.33 119.45 4 132.56 6.79ZM143.66 8.76C149.63 10.03 153.27 15.11 153.27 20.77 153.27 26.43 149.62 29.99 143.66 28.72 137.67 27.45 133.99 22.36 133.99 16.67 133.99 10.98 137.66 7.48 143.66 8.76M143.66 24.23C146.84 24.91 148.4 23.22 148.4 19.74 148.4 16.26 146.81 13.93 143.66 13.26 140.48 12.58 138.89 14.26 138.89 17.72 138.89 21.18 140.48 23.56 143.66 24.24M155.65 11.69 164.59 13.59 169.75 32.31 169.75 14.69 174.49 15.7 174.49 34.9 165.55 33 160.39 14.28 160.39 31.9 155.65 30.89 155.65 11.69ZM5.89 19.45 14.57 17.61 20.43 35.56 15.4 36.63 13.68 31.19 6.7 32.67 4.98 38.84-2.66454e-15 39.9 5.89 19.45ZM12.38 27.14 10.19 20.28 8 28.07 12.38 27.14ZM30.04 33.9C23.55 35.28 20.82 32.97 20.82 27.99L25.72 26.95C25.72 29.67 26.74 30.46 30.15 29.74 32.47 29.25 33.46 28.55 33.46 27.35 33.46 26.67 32.94 26.26 31.9 26.21L25.75 25.83C22.57 25.61 21.58 23.88 21.58 21.46 21.58 17.73 24.24 15.18 29.06 14.15 34.79 12.93 37.63 15.16 37.63 19.33L32.76 20.37C32.76 18.3 31.64 17.67 29.14 18.2 27.4 18.57 26.48 19.23 26.48 20.32 26.48 20.86 26.77 21.27 27.91 21.35L33.88 21.63C36.93 21.77 38.34 23.3 38.34 26.1 38.34 29.75 35.94 32.66 30.05 33.91M39.71 21.85C39.71 16.18 43.44 11.09 49.46 9.81 54.72 8.69 58.22 10.92 58.76 15.62L53.89 16.66C53.5 14.67 51.8 13.81 49.49 14.3 46.65 14.9 44.62 17.02 44.62 20.81 44.62 24.6 46.65 25.88 49.49 25.28 51.81 24.79 53.5 23.17 53.89 21.02L58.76 19.99C58.21 24.95 54.72 28.66 49.46 29.78 43.44 31.06 39.71 27.55 39.71 21.86M61.08 7.72 75.7 4.61 75.7 8.94 65.85 11.03 65.85 14.24 74.4 12.42 74.4 16.5 65.85 18.32 65.85 21.56 75.7 19.47 75.7 23.8 61.08 26.91 61.08 7.72ZM78.57 4 87.51 2.1 92.67 18.62 92.67 1.01 97.41 0 97.41 19.2 88.47 21.1 83.31 4.58 83.31 22.2 78.57 23.21 78.57 4Z" class="MsftOfcThm_Background1_Fill_v2" fill="#FFFFFF"/></svg>