<svg viewBox="0 0 702.65 265.37" xmlns="http://www.w3.org/2000/svg" xmlns:xlink="http://www.w3.org/1999/xlink" id="AW" overflow="hidden"><defs></defs><path d="M394.85 67.86 417.71 72.72C434.05 76.19 450.98 84.13 450.98 110.94 450.98 137.75 434.04 138.57 417.71 135.1L394.85 130.24 394.85 67.86ZM417.71 120.94C427.96 123.12 435.57 124.39 435.57 107.66 435.57 90.93 427.87 88.94 417.71 86.78L410.26 85.2 410.26 119.35 417.71 120.93ZM498.57 89.91 498.57 103.98 484.94 101.08 484.94 135.23 498.57 138.13 498.57 152.29 455.98 143.24 455.98 129.08 469.61 131.98 469.61 97.83 455.98 94.93 455.98 80.86 498.57 89.91ZM534.63 96.34C554.02 100.46 565.87 116.96 565.87 135.37 565.87 153.78 554.02 165.32 534.63 161.2 515.15 157.06 503.22 140.54 503.22 122.05 503.22 103.56 515.16 92.2 534.63 96.34ZM534.63 146.6C544.96 148.8 550.04 143.33 550.04 132 550.04 120.67 544.88 113.12 534.63 110.94 524.3 108.74 519.13 114.19 519.13 125.43 519.13 136.67 524.3 144.4 534.63 146.6ZM573.58 105.86 602.62 112.03 619.38 172.84 619.38 115.59 634.79 118.86 634.79 181.24 605.75 175.07 588.99 114.26 588.99 171.51 573.58 168.24 573.58 105.86ZM86.99 131.07 115.18 125.08 134.23 183.41 117.89 186.88 112.3 169.22 89.61 174.04 84.02 194.07 67.85 197.51 86.98 131.06ZM108.07 156.05 100.96 133.76 93.85 159.07 108.07 156.05ZM165.46 178C144.38 182.48 135.49 174.99 135.49 158.8L151.4 155.42C151.4 164.27 154.7 166.84 165.79 164.48 173.32 162.88 176.54 160.6 176.54 156.71 176.54 154.5 174.85 153.18 171.46 153.01L151.48 151.77C141.15 151.05 137.93 145.45 137.93 137.57 137.93 125.45 146.57 117.15 162.23 113.82 180.86 109.86 190.08 117.1 190.08 130.64L174.25 134C174.25 127.28 170.61 125.22 162.48 126.95 156.81 128.16 153.84 130.29 153.84 133.83 153.84 135.6 154.77 136.9 158.5 137.17L177.89 138.09C187.79 138.55 192.37 143.51 192.37 152.62 192.37 164.48 184.58 173.92 165.45 177.99ZM196.87 138.85C196.87 120.44 208.98 103.89 228.53 99.73 245.63 96.1 256.97 103.33 258.75 118.61L242.92 121.97C241.65 115.52 236.15 112.71 228.61 114.31 219.38 116.27 212.78 123.16 212.78 135.46 212.78 147.76 219.38 151.93 228.61 149.97 236.14 148.37 241.65 143.13 242.92 136.13L258.75 132.77C256.97 148.9 245.63 160.95 228.53 164.59 208.97 168.75 196.87 157.34 196.87 138.85ZM266.31 92.94 313.8 82.85 313.8 96.92 281.8 103.72 281.8 114.16 309.57 108.26 309.57 121.53 281.8 127.43 281.8 137.96 313.8 131.16 313.8 145.23 266.31 155.32 266.31 92.94ZM323.13 80.86 352.17 74.69 368.94 128.38 368.94 71.13 384.35 67.85 384.35 130.23 355.31 136.4 338.55 82.71 338.55 139.96 323.14 143.23 323.14 80.85Z" fill="#FFFFFF"/></svg>